<svg width="64" height="64" viewBox="0 0 64 64" fill="none" xmlns="http://www.w3.org/2000/svg">
<g clip-path="url(#clip0)">
<rect width="64" height="64" fill="white"/>
<path d="M64 0V64H0L64 0Z" fill="#C4C4C4"/>
<rect x="1.5" y="1.5" width="61" height="61" stroke="black" stroke-width="3"/>
<line x1="-0.0606602" y1="63.9393" x2="63.9393" y2="-0.060658" stroke="black" stroke-width="3"/>
<path d="M48.7082 9.03268C33.2977 8.52024 20.6753 14.2045 20.6753 14.2045L20.6661 43.0506C19.0971 42.4278 17.189 42.2801 15.251 42.7511C11.0728 43.7664 8.33677 47.2683 9.13993 50.5744C9.94309 53.8804 13.981 55.7379 18.1587 54.7231C22.0981 53.7658 24.7542 50.5974 24.3719 47.468V25.9147C24.3719 25.9147 33.2977 22.794 44.8755 22.0116V38.0421C43.3234 37.4478 41.4517 37.313 39.5491 37.7753C35.371 38.7901 32.6349 42.2921 33.438 45.5985C34.2407 48.9046 38.2786 50.7616 42.4568 49.7468C46.1051 48.8604 48.6548 45.9426 48.7082 43.0506V43.1872V9.03268Z" fill="black" stroke="white" stroke-width="3"/>
<path d="M48.7082 9.03268C33.2977 8.52024 20.6753 14.2045 20.6753 14.2045L20.6661 43.0506C19.0971 42.4278 17.189 42.2801 15.251 42.7511C11.0728 43.7664 8.33677 47.2683 9.13993 50.5744C9.94309 53.8804 13.981 55.7379 18.1587 54.7231C22.0981 53.7658 24.7542 50.5974 24.3719 47.468V25.9147C24.3719 25.9147 33.2977 22.794 44.8755 22.0116V38.0421C43.3234 37.4478 41.4517 37.313 39.5491 37.7753C35.371 38.7901 32.6349 42.2921 33.438 45.5985C34.2407 48.9046 38.2786 50.7616 42.4568 49.7468C46.1051 48.8604 48.6535 46.0774 48.7068 43.1854L48.7082 43.1872V9.03268Z" fill="black" stroke="white"/>
</g>
<defs>
<clipPath id="clip0">
<rect width="64" height="64" fill="white"/>
</clipPath>
</defs>
</svg>
