<?xml version="1.0" standalone="no"?>
<!DOCTYPE svg PUBLIC "-//W3C//DTD SVG 20010904//EN"
 "http://www.w3.org/TR/2001/REC-SVG-20010904/DTD/svg10.dtd">
<svg version="1.0" xmlns="http://www.w3.org/2000/svg"
 width="700.000000pt" height="700.000000pt" viewBox="0 0 700.000000 700.000000"
 preserveAspectRatio="xMidYMid meet">
<metadata>
Created by potrace 1.14, written by Peter Selinger 2001-2017
</metadata>
<g transform="translate(0.000000,700.000000) scale(0.100000,-0.100000)"
fill="#000000" stroke="none">
<path d="M0 3500 l0 -3500 3500 0 3500 0 0 3500 0 3500 -3500 0 -3500 0 0
-3500z m5957 2702 l-467 -467 0 -228 c0 -125 3 -227 7 -227 5 0 270 262 590
582 l583 583 0 -3058 0 -3057 -3057 0 -3058 0 318 318 318 318 -60 41 c-32 23
-88 74 -123 112 l-63 71 -307 -308 -308 -307 0 3048 0 3047 3047 0 3048 0
-468 -468z"/>
<path d="M4790 5953 c-474 -31 -747 -66 -1135 -144 -402 -81 -888 -221 -1222
-352 l-108 -43 -2 -1589 c-2 -875 -5 -1595 -7 -1602 -4 -8 -28 -3 -81 18 -527
202 -1194 -158 -1195 -646 -1 -453 603 -701 1119 -459 219 103 373 265 432
456 18 57 19 117 19 1337 l0 1278 168 51 c633 194 1361 329 2100 388 l82 6 0
-946 0 -946 -66 25 c-117 44 -213 58 -358 52 -269 -10 -489 -106 -660 -288
-194 -206 -232 -467 -98 -675 131 -202 423 -318 715 -284 216 25 412 110 551
238 67 62 132 145 165 211 65 128 61 -9 61 2050 l0 1871 -217 -2 c-120 -1
-238 -3 -263 -5z"/>
<path d="M4525 4393 c-16 -2 -120 -15 -230 -30 l-200 -26 -633 -631 -632 -631
2 -233 3 -232 895 895 c844 844 893 895 860 894 -19 -1 -48 -4 -65 -6z"/>
</g>
</svg>
