<svg viewBox="0 -15 575 89" fill="none" xmlns="http://www.w3.org/2000/svg" overflow="visible">
  <rect width="64" height="64" fill="white" />
  <path d="M64 0V64H0L64 0Z" fill="#C4C4C4" />
  <rect x="1.5" y="1.5" width="61" height="61" stroke="black" stroke-width="3" />
  <line x1="0.93934" y1="62.9393" x2="62.9393" y2="0.939339" stroke="black" stroke-width="3" />
  <path
    d="M48.7082 9.03268C33.2977 8.52024 20.6753 14.2045 20.6753 14.2045L20.6661 43.0506C19.0971 42.4278 17.189 42.2801 15.251 42.7511C11.0728 43.7664 8.33677 47.2683 9.13993 50.5744C9.94309 53.8804 13.981 55.7379 18.1587 54.7231C22.0981 53.7658 24.7542 50.5974 24.3719 47.468V25.9147C24.3719 25.9147 33.2977 22.794 44.8755 22.0116V38.0421C43.3234 37.4478 41.4517 37.313 39.5491 37.7753C35.371 38.7901 32.6349 42.2921 33.438 45.5985C34.2407 48.9046 38.2786 50.7616 42.4568 49.7468C46.1051 48.8604 48.6548 45.9426 48.7082 43.0506V43.1872V9.03268Z"
    fill="black" stroke="white" stroke-width="3" />
  <path
    d="M48.7082 9.03268C33.2977 8.52024 20.6753 14.2045 20.6753 14.2045L20.6661 43.0506C19.0971 42.4278 17.189 42.2801 15.251 42.7511C11.0728 43.7664 8.33677 47.2683 9.13993 50.5744C9.94309 53.8804 13.981 55.7379 18.1587 54.7231C22.0981 53.7658 24.7542 50.5974 24.3719 47.468V25.9147C24.3719 25.9147 33.2977 22.794 44.8755 22.0116V38.0421C43.3234 37.4478 41.4517 37.313 39.5491 37.7753C35.371 38.7901 32.6349 42.2921 33.438 45.5985C34.2407 48.9046 38.2786 50.7616 42.4568 49.7468C46.1051 48.8604 48.6535 46.0774 48.7068 43.1854L48.7082 43.1872V9.03268Z"
    fill="black" stroke="white" />
  <path
    d="M64.1325 89.3605C61.1492 89.3605 58.8965 88.8526 57.3745 87.8368C55.7915 86.8808 55 85.626 55 84.0724C55 82.9968 55.4566 82.0109 56.3699 81.1146C57.2831 80.2781 58.1355 79.8598 58.927 79.8598C59.4749 79.8598 60.0229 80.1586 60.5708 80.7561C61.0579 81.4134 61.6059 82.1005 62.2147 82.8176C62.7626 83.5346 63.4324 84.162 64.2239 84.6998C64.9545 85.2973 65.8677 85.5961 66.9636 85.5961C67.9986 85.5961 68.9423 85.2376 69.7947 84.5205C70.5862 83.8632 71.3472 82.6981 72.0778 81.025C72.8084 79.4116 73.5999 77.2008 74.4523 74.3924L86.7812 32.8044C87.0856 31.7288 86.6594 31.191 85.5026 31.191L79.8405 31.2807C79.3534 31.2807 79.0185 31.1612 78.8359 30.9221C78.6532 30.6831 78.5619 30.3844 78.5619 30.0259C78.5619 29.5478 78.775 29.01 79.2012 28.4125C79.6274 27.815 80.1449 27.4863 80.7537 27.4266L86.8725 27.0681C87.6031 27.0083 88.1206 26.4705 88.425 25.4547L89.1557 22.7659C90.7386 17.2088 92.8087 12.7871 95.3658 9.50072C97.9229 6.15455 100.602 3.76444 103.402 2.33036C106.264 0.83654 108.851 0.0896277 111.165 0.0896277C113.905 0.0896277 116.097 0.687156 117.74 1.88221C119.384 3.07728 120.206 4.63085 120.206 6.54295C120.206 8.03677 119.81 9.2617 119.019 10.2177C118.228 11.1738 117.314 11.6518 116.279 11.6518C115.67 11.6518 115.153 11.2634 114.727 10.4866C114.361 9.70985 113.935 8.78368 113.448 7.70813C112.9 6.51307 112.231 5.55702 111.439 4.83998C110.648 4.12295 109.613 3.76444 108.334 3.76444C106.812 3.76444 105.503 4.21258 104.407 5.10887C103.311 6.00517 102.306 7.46911 101.393 9.50072C100.48 11.4726 99.5058 14.1316 98.4708 17.4777C98.1055 18.6728 97.7707 19.8081 97.4663 20.8836C97.2227 21.9592 96.9183 23.0646 96.553 24.1999C96.4921 24.5585 96.4008 24.8871 96.279 25.1859C96.2181 25.4249 96.1877 25.6938 96.1877 25.9925C96.1877 26.351 96.279 26.6199 96.4617 26.7992C96.7052 26.9187 96.9792 26.9784 97.2836 26.9784C99.0492 26.9784 100.724 26.9486 102.306 26.8888C103.889 26.7693 105.442 26.7096 106.964 26.7096C107.451 26.7096 107.695 27.0681 107.695 27.7851C107.695 28.0241 107.573 28.3826 107.329 28.8607C107.086 29.3387 106.751 29.757 106.325 30.1155C105.96 30.474 105.564 30.6533 105.138 30.6533L97.101 30.8325C96.3703 30.8325 95.7615 30.952 95.2744 31.191C94.8483 31.43 94.5743 31.8782 94.4525 32.5355C92.3825 39.168 90.3733 45.8903 88.425 52.7021C86.4768 59.5139 84.5894 66.2361 82.7629 72.8687C82.2149 75.1393 81.1799 77.2605 79.6578 79.2324C78.1966 81.2042 76.4919 82.9371 74.5436 84.4309C72.6562 85.9845 70.7993 87.1795 68.9728 88.0161C67.1463 88.9124 65.5328 89.3605 64.1325 89.3605Z"
    fill="black" />
  <path
    d="M110.779 64.8021C110.353 64.8021 109.866 64.6825 109.318 64.4435C108.831 64.2045 108.374 63.846 107.948 63.368C107.583 62.9497 107.4 62.5016 107.4 62.0235C107.4 61.3663 107.552 60.6194 107.857 59.7828C108.161 58.8865 108.557 57.7811 109.044 56.4665L117.72 34.3281C118.024 33.611 118.116 32.9836 117.994 32.4458C117.933 31.8483 117.598 31.5495 116.989 31.5495C116.015 31.5495 115.132 31.6989 114.341 31.9977C113.549 32.2965 112.849 32.655 112.24 33.0732C111.875 33.3123 111.51 33.372 111.144 33.2525C110.779 33.133 110.596 32.8342 110.596 32.3562C110.536 31.6392 110.84 30.8624 111.51 30.0259C112.24 29.1893 113.154 28.4424 114.249 27.7851C115.163 27.1278 116.228 26.6199 117.446 26.2614C118.663 25.8431 119.881 25.634 121.099 25.634C122.804 25.634 123.93 26.0822 124.478 26.9784C125.026 27.815 125.178 28.9802 124.934 30.474C124.752 31.9081 124.265 33.5513 123.473 35.4036L119.546 44.8147C119.303 45.233 119.364 45.5019 119.729 45.6214C120.155 45.7409 120.46 45.6214 120.642 45.2628C122.956 41.2594 125.269 37.7937 127.583 34.8658C129.957 31.8782 132.18 29.5478 134.25 27.8747C136.381 26.2017 138.298 25.3651 140.003 25.3651C141.708 25.3651 142.926 25.8431 143.656 26.7992C144.448 27.7552 144.843 28.9204 144.843 30.2947C144.843 31.5495 144.569 32.8044 144.021 34.0592C143.534 35.314 142.865 36.3597 142.012 37.1962C141.221 37.973 140.399 38.3614 139.547 38.3614C138.938 38.3614 138.481 38.0626 138.177 37.4651C137.933 36.8676 137.75 36.031 137.629 34.9555C137.568 34.0592 137.385 33.3123 137.081 32.7147C136.837 32.0574 136.381 31.7288 135.711 31.7288C134.919 31.7288 134.006 32.2367 132.971 33.2525C131.936 34.2086 130.688 35.7323 129.227 37.8236C128.618 38.6601 127.796 39.8552 126.761 41.4088C125.726 42.9026 124.63 44.5757 123.473 46.428C122.316 48.2804 121.16 50.1327 120.003 51.9851C118.846 53.8374 117.842 55.5105 116.989 57.0043C115.528 59.5737 114.341 61.5156 113.427 62.8302C112.514 64.1448 111.631 64.8021 110.779 64.8021Z"
    fill="black" />
  <path
    d="M151.631 64.7124C150.23 64.7124 148.769 64.2344 147.247 63.2784C145.786 62.3223 144.538 61.0675 143.503 59.5139C142.529 57.9603 142.042 56.4068 142.042 54.8532C142.042 51.5668 142.681 48.2206 143.959 44.8147C145.299 41.4088 147.095 38.2718 149.348 35.4036C151.6 32.4757 154.157 30.1155 157.019 28.3229C159.941 26.5303 162.985 25.634 166.151 25.634C168.769 25.634 170.748 26.1718 172.088 27.2473C173.427 28.2631 174.097 29.5777 174.097 31.191C174.097 33.1031 173.457 34.7762 172.179 36.2103C170.961 37.5846 169.317 38.7797 167.247 39.7955C165.177 40.8113 162.894 41.6478 160.398 42.3051C157.963 42.9624 155.497 43.53 153.001 44.008C152.696 44.0678 152.453 44.1574 152.27 44.2769C152.087 44.3367 151.935 44.5159 151.813 44.8147C151.509 45.8305 151.205 46.9359 150.9 48.131C150.596 49.326 150.413 50.4315 150.352 51.4473C150.352 53.5386 150.809 55.2416 151.722 56.5562C152.696 57.811 154.127 58.4384 156.014 58.4384C158.023 58.4384 159.759 57.9603 161.22 57.0043C162.681 55.9885 163.99 54.8831 165.147 53.688C165.756 53.0307 166.273 52.7021 166.699 52.7021C167.308 52.7021 167.613 53.0009 167.613 53.5984C167.613 53.7179 167.613 53.8673 167.613 54.0465C167.613 54.2258 167.552 54.3752 167.43 54.4947C166.212 56.5263 164.812 58.3189 163.229 59.8724C161.646 61.3663 159.88 62.5314 157.932 63.368C156.045 64.2643 153.944 64.7124 151.631 64.7124ZM153.64 41.4984C154.553 41.3789 155.771 41.11 157.293 40.6917C158.815 40.2735 160.337 39.6461 161.859 38.8095C163.442 37.973 164.782 36.9273 165.877 35.6725C166.973 34.4177 167.521 32.894 167.521 31.1014C167.521 30.3844 167.308 29.7271 166.882 29.1296C166.456 28.532 165.847 28.2333 165.056 28.2333C163.838 28.2333 162.559 28.7113 161.22 29.6673C159.88 30.6234 158.602 31.7886 157.384 33.1629C156.167 34.5372 155.162 35.9414 154.37 37.3755C153.579 38.8095 153.122 40.0046 153.001 40.9606C153.001 41.3789 153.214 41.5582 153.64 41.4984Z"
    fill="black" />
  <path
    d="M180.989 64.7124C180.563 64.7124 180.106 64.563 179.619 64.2643C179.132 63.9655 178.675 63.5771 178.249 63.0991C177.884 62.5613 177.61 61.9937 177.427 61.3961C177.245 60.7389 177.305 60.1413 177.61 59.6035L187.656 35.1347C188.63 32.9239 188.569 31.8184 187.473 31.8184C186.986 31.8184 186.377 31.8782 185.646 31.9977C184.916 32.1172 184.124 32.4458 183.272 32.9836C182.42 33.5214 181.506 34.3878 180.532 35.5829C180.289 35.8219 179.984 35.9414 179.619 35.9414C179.315 35.8816 179.102 35.6426 178.98 35.2244C178.98 34.8061 179.102 34.2982 179.345 33.7007C179.649 33.0434 179.984 32.416 180.35 31.8184C180.776 31.1612 181.141 30.6533 181.446 30.2947C182.541 28.9204 183.942 27.815 185.646 26.9784C187.412 26.1419 189.482 25.6938 191.857 25.634C192.831 25.634 193.622 25.9029 194.231 26.4407C194.901 26.9187 195.357 27.5461 195.601 28.3229C195.844 29.0997 195.784 29.9362 195.418 30.8325L189.847 44.9043C189.665 45.3226 189.756 45.5616 190.121 45.6214C190.487 45.6811 190.761 45.5317 190.943 45.1732C193.318 41.1698 195.723 37.7041 198.158 34.7762C200.593 31.8483 202.968 29.6076 205.281 28.054C207.656 26.4407 209.878 25.634 211.948 25.634C213.592 25.634 214.901 26.1718 215.875 27.2473C216.91 28.2631 217.519 29.5777 217.702 31.191C217.884 32.7446 217.58 34.4774 216.788 36.3895L208.934 54.5843C208.021 56.6159 208.143 57.6317 209.3 57.6317C209.909 57.6317 210.67 57.3927 211.583 56.9147C212.557 56.4366 213.501 55.869 214.414 55.2117C215.388 54.5544 216.24 53.927 216.971 53.3295C217.763 52.732 218.28 52.3137 218.524 52.0747C218.706 51.9552 218.858 51.8357 218.98 51.7162C219.102 51.5967 219.224 51.5369 219.346 51.5369C219.528 51.5369 219.711 51.6265 219.893 51.8058C220.076 51.985 220.167 52.1942 220.167 52.4332C220.167 53.1502 219.954 53.8075 219.528 54.405C217.823 56.3171 215.997 58.05 214.049 59.6035C212.1 61.1571 210.091 62.3821 208.021 63.2784C205.951 64.1747 203.912 64.6228 201.902 64.6228C201.294 64.6228 200.654 64.4137 199.985 63.9954C199.376 63.5771 198.889 63.0393 198.523 62.3821C198.219 61.7248 198.219 61.0675 198.523 60.4102C200.35 56.2275 202.207 52.1046 204.094 48.0414C206.042 43.9782 207.839 39.8552 209.482 35.6725C210.274 33.7007 210.548 32.2965 210.304 31.4599C210.061 30.6234 209.543 30.1752 208.752 30.1155C208.021 30.1155 207.199 30.4441 206.286 31.1014C205.373 31.7587 204.338 32.6849 203.181 33.8799C202.085 35.075 200.928 36.4493 199.711 38.0029C199.041 38.8394 198.128 40.0942 196.971 41.7673C195.875 43.4404 194.627 45.3525 193.227 47.5036C191.826 49.6547 190.395 51.8954 188.934 54.2258C187.534 56.5561 186.194 58.7969 184.916 60.948C184.246 62.143 183.576 63.0692 182.907 63.7265C182.298 64.3838 181.659 64.7124 180.989 64.7124Z"
    fill="black" />
  <path
    d="M234.392 64.7124C232.931 64.7124 231.47 64.2643 230.008 63.368C228.608 62.4119 227.421 61.1571 226.447 59.6035C225.534 58.05 225.107 56.2873 225.168 54.3154C225.229 51.8655 225.625 49.326 226.355 46.6969C227.086 44.0678 228.121 41.4984 229.461 38.9888C230.8 36.4792 232.444 34.2384 234.392 32.2666C236.34 30.235 238.563 28.6217 241.059 27.4266C243.555 26.2315 246.295 25.634 249.278 25.634C251.165 25.634 252.627 26.0224 253.662 26.7992C254.758 27.5162 255.306 28.3826 255.306 29.3984C255.306 30.4142 254.971 31.4599 254.301 32.5355C253.631 33.5513 252.931 34.0592 252.201 34.0592C251.713 34.0592 251.287 33.85 250.922 33.4318C250.618 33.0135 250.252 32.416 249.826 31.6392C249.4 30.8624 248.852 30.1752 248.182 29.5777C247.573 28.9204 246.812 28.5918 245.899 28.5918C244.499 28.5918 243.068 29.3686 241.607 30.9221C240.146 32.416 238.776 34.3579 237.497 36.7481C236.279 39.1382 235.275 41.7075 234.483 44.4562C233.753 47.2048 233.357 49.7742 233.296 52.1643C233.296 54.1959 233.753 55.6897 234.666 56.6458C235.579 57.5421 236.827 57.9902 238.41 57.9902C240.237 57.9902 241.789 57.6317 243.068 56.9147C244.347 56.1379 245.534 55.152 246.63 53.9569C246.995 53.5984 247.299 53.3295 247.543 53.1502C247.786 52.971 248.06 52.8814 248.365 52.8814C248.913 52.8814 249.187 53.2399 249.187 53.9569C249.187 54.7934 248.761 55.8092 247.908 57.0043C247.117 58.1994 245.99 59.3944 244.529 60.5895C243.129 61.7845 241.546 62.7705 239.78 63.5472C238.076 64.324 236.279 64.7124 234.392 64.7124Z"
    fill="black" />
  <path
    d="M258.735 64.8917C258.369 64.8917 257.973 64.7423 257.547 64.4435C257.121 64.1448 256.756 63.7863 256.451 63.368C256.147 62.89 255.995 62.3821 255.995 61.8443C255.995 60.8882 256.086 59.9621 256.269 59.0658C256.512 58.1097 256.817 57.0043 257.182 55.7495L269.876 13.9822C270.181 12.9664 270.455 11.9207 270.698 10.8452C271.003 9.70985 271.155 8.81356 271.155 8.15627C271.155 7.49899 270.759 7.02097 269.968 6.7222C269.237 6.36369 268.476 6.06492 267.684 5.82591C267.258 5.64665 266.862 5.49727 266.497 5.37776C266.132 5.1985 265.949 4.95949 265.949 4.66073C265.949 4.42172 266.071 4.1827 266.315 3.94369C266.558 3.70468 267.076 3.43579 267.867 3.13703C268.415 2.95777 269.207 2.68888 270.242 2.33036C271.337 1.97185 272.494 1.61333 273.712 1.25481C274.93 0.896291 276.025 0.597526 277 0.358518C278.035 0.119506 278.735 0 279.1 0C279.465 0 279.861 0.0298755 280.287 0.0896277C280.713 0.14938 280.927 0.448144 280.927 0.985921C280.927 1.58345 280.866 2.09135 280.744 2.50962C280.622 2.92789 280.5 3.37604 280.379 3.85406L267.867 44.5458C267.745 44.9641 267.776 45.1732 267.958 45.1732C268.141 45.1732 268.324 45.0537 268.506 44.8147C271.003 41.0503 273.621 37.7041 276.36 34.7762C279.161 31.7886 281.84 29.4582 284.397 27.7851C287.015 26.0523 289.329 25.1859 291.338 25.1859C293.529 25.1859 295.173 25.9029 296.269 27.337C297.426 28.7113 298.004 30.3545 298.004 32.2666C298.004 35.314 297.487 38.451 296.452 41.6777C295.417 44.9043 294.047 47.9816 292.342 50.9095C290.698 53.8374 288.902 56.3769 286.954 58.528C286.528 58.9463 285.858 59.5139 284.945 60.231C284.093 60.8882 283.088 61.5455 281.931 62.2028C280.774 62.8601 279.618 63.4277 278.461 63.9058C277.365 64.3838 276.421 64.6228 275.63 64.6228C275.082 64.6228 274.473 64.4137 273.803 63.9954C273.134 63.6369 272.555 63.1588 272.068 62.5613C271.581 61.9638 271.337 61.4559 271.337 61.0376C271.337 60.7389 271.459 60.3505 271.703 59.8724C272.007 59.3347 272.372 58.8566 272.799 58.4384C273.225 58.0201 273.651 57.811 274.077 57.811C274.625 57.811 275.082 57.9305 275.447 58.1695C275.873 58.4085 276.239 58.7073 276.543 59.0658C276.969 59.4243 277.365 59.7529 277.73 60.0517C278.156 60.2907 278.643 60.4102 279.191 60.4102C280.044 60.4102 280.957 59.8127 281.931 58.6176C282.966 57.4226 283.94 55.8391 284.854 53.8673C285.828 51.8954 286.68 49.7443 287.411 47.4139C288.141 45.0836 288.72 42.7831 289.146 40.5125C289.572 38.1821 289.785 36.0908 289.785 34.2384C289.785 32.9836 289.542 32.0276 289.055 31.3703C288.567 30.6533 287.806 30.2947 286.771 30.2947C285.554 30.2947 284.184 30.9221 282.662 32.177C281.201 33.4318 279.618 35.1048 277.913 37.1962C276.269 39.2876 274.595 41.5582 272.89 44.008C271.246 46.4579 269.694 48.8779 268.232 51.268C266.771 53.5984 265.523 55.6599 264.488 57.4524C263.088 59.9621 261.961 61.8443 261.109 63.0991C260.318 64.2942 259.526 64.8917 258.735 64.8917Z"
    fill="black" />
  <path
    d="M311.616 64.2643C308.816 64.2643 306.624 63.5472 305.041 62.1132C303.458 60.6193 302.666 58.6176 302.666 56.108C302.666 54.6739 302.818 53.1204 303.123 51.4473C303.488 49.7144 304.006 47.9219 304.675 46.0695L315.634 12.9066C316 11.8311 316.243 10.9049 316.365 10.1281C316.548 9.35133 316.639 8.60442 316.639 7.88739C316.639 7.46912 316.426 7.14047 316 6.90146C315.634 6.6027 314.995 6.30393 314.082 6.00517C312.377 5.52715 311.525 5.04912 311.525 4.5711C311.525 4.27233 311.647 4.03332 311.89 3.85406C312.134 3.61505 312.621 3.37604 313.351 3.13703C314.143 2.83826 315.147 2.50962 316.365 2.1511C317.644 1.79259 318.892 1.46395 320.109 1.16518C321.388 0.806663 322.514 0.537774 323.488 0.358518C324.463 0.119506 325.102 0 325.406 0C326.563 0 327.141 0.32864 327.141 0.985921C327.141 1.58345 327.081 2.12123 326.959 2.59925C326.898 3.01752 326.715 3.5553 326.411 4.21258C325.863 5.46739 325.193 7.17035 324.402 9.32145C323.61 11.4128 322.758 13.7432 321.845 16.3125C320.931 18.8819 319.988 21.5708 319.014 24.3792C318.1 27.1278 317.157 29.8765 316.182 32.6251C315.269 35.314 314.447 37.8236 313.717 40.154C313.534 40.6918 313.534 41.0204 313.717 41.1399C313.96 41.2594 314.265 41.0503 314.63 40.5125C318.222 35.792 321.692 32.1471 325.041 29.5777C328.39 26.9486 331.282 25.634 333.717 25.634C335.726 25.634 337.4 26.3212 338.74 27.6955C340.14 29.01 340.84 30.6533 340.84 32.6251C340.84 35.4335 340.262 38.3315 339.105 41.3192C337.948 44.247 336.365 47.0853 334.356 49.8339C332.347 52.5826 330.064 55.0324 327.507 57.1836C325.011 59.3347 322.393 61.0675 319.653 62.3821C316.913 63.6369 314.234 64.2643 311.616 64.2643ZM314.082 61.1272C314.873 61.1272 315.878 60.7389 317.096 59.9621C318.313 59.1255 319.592 58.0201 320.931 56.6458C322.332 55.2715 323.671 53.7179 324.95 51.9851C326.35 50.0132 327.659 47.8621 328.877 45.5317C330.094 43.2014 331.038 40.9905 331.708 38.8992C332.438 36.7481 332.804 34.9853 332.804 33.611C332.804 32.655 332.56 31.8782 332.073 31.2807C331.586 30.6831 330.977 30.3844 330.247 30.3844C328.603 30.3844 326.624 31.3404 324.31 33.2525C321.997 35.1646 319.348 38.0925 316.365 42.0362C314.356 44.8446 312.712 47.4737 311.434 49.9236C310.216 52.3137 309.607 54.1063 309.607 55.3013C309.607 56.7952 310.033 58.1396 310.886 59.3347C311.799 60.5297 312.864 61.1272 314.082 61.1272Z"
    fill="black" />
  <path
    d="M352.94 64.6228C351.175 64.6228 349.5 64.1448 347.917 63.1887C346.395 62.1729 345.147 60.8285 344.173 59.1554C343.26 57.4226 342.803 55.5702 342.803 53.5984C342.803 50.79 343.381 47.7725 344.538 44.5458C345.695 41.3192 347.339 38.2718 349.47 35.4036C351.601 32.5355 354.097 30.2051 356.958 28.4125C359.82 26.5602 362.955 25.634 366.365 25.634C369.774 25.634 372.453 26.7096 374.402 28.8607C376.35 30.952 377.324 33.6708 377.324 37.0169C377.324 39.7058 376.746 42.6636 375.589 45.8903C374.493 49.0572 372.879 52.0747 370.749 54.9428C368.618 57.7512 366.061 60.0816 363.077 61.9339C360.094 63.7265 356.715 64.6228 352.94 64.6228ZM354.493 61.665C355.832 61.665 357.202 61.0376 358.602 59.7828C360.003 58.4682 361.342 56.7653 362.621 54.6739C363.96 52.5826 365.117 50.2821 366.091 47.7725C367.126 45.2628 367.948 42.7532 368.557 40.2436C369.166 37.734 369.47 35.4634 369.47 33.4318C369.47 31.9379 369.196 30.7728 368.648 29.9362C368.161 29.0399 367.217 28.5918 365.817 28.5918C364.538 28.5918 363.199 29.1893 361.799 30.3844C360.398 31.5794 359.028 33.1928 357.689 35.2244C356.41 37.1962 355.254 39.4071 354.219 41.8569C353.184 44.247 352.362 46.7268 351.753 49.2962C351.144 51.8655 350.84 54.3154 350.84 56.6458C350.84 58.3786 351.144 59.6633 351.753 60.4998C352.423 61.2766 353.336 61.665 354.493 61.665Z"
    fill="black" />
  <path
    d="M390.576 64.6228C388.811 64.6228 387.136 64.1448 385.553 63.1887C384.031 62.1729 382.783 60.8285 381.809 59.1554C380.896 57.4226 380.439 55.5702 380.439 53.5984C380.439 50.79 381.017 47.7725 382.174 44.5458C383.331 41.3192 384.975 38.2718 387.106 35.4036C389.237 32.5355 391.733 30.2051 394.594 28.4125C397.456 26.5602 400.591 25.634 404.001 25.634C407.41 25.634 410.089 26.7096 412.038 28.8607C413.986 30.952 414.96 33.6708 414.96 37.0169C414.96 39.7058 414.382 42.6636 413.225 45.8903C412.129 49.0572 410.515 52.0747 408.385 54.9428C406.254 57.7512 403.697 60.0816 400.713 61.9339C397.73 63.7265 394.351 64.6228 390.576 64.6228ZM392.129 61.665C393.468 61.665 394.838 61.0376 396.238 59.7828C397.639 58.4682 398.978 56.7653 400.257 54.6739C401.596 52.5826 402.753 50.2821 403.727 47.7725C404.762 45.2628 405.584 42.7532 406.193 40.2436C406.802 37.734 407.106 35.4634 407.106 33.4318C407.106 31.9379 406.832 30.7728 406.284 29.9362C405.797 29.0399 404.853 28.5918 403.453 28.5918C402.174 28.5918 400.835 29.1893 399.435 30.3844C398.034 31.5794 396.665 33.1928 395.325 35.2244C394.047 37.1962 392.89 39.4071 391.855 41.8569C390.82 44.247 389.998 46.7268 389.389 49.2962C388.78 51.8655 388.476 54.3154 388.476 56.6458C388.476 58.3786 388.78 59.6633 389.389 60.4998C390.059 61.2766 390.972 61.665 392.129 61.665Z"
    fill="black" />
  <path
    d="M442.419 65.0709C441.079 65.0709 439.953 64.6825 439.04 63.9058C438.188 63.1887 437.457 62.1132 436.848 60.6791L433.195 50.551C432.891 49.5949 432.434 48.7883 431.825 48.131C431.277 47.4737 430.577 47.1451 429.725 47.1451C429.299 47.1451 428.903 47.5036 428.537 48.2206C428.172 48.9377 427.837 49.6547 427.533 50.3717C427.289 50.9692 426.955 51.7759 426.528 52.7917C426.163 53.7478 425.737 54.7934 425.25 55.9287C424.824 57.0641 424.397 58.1396 423.971 59.1554C423.606 60.1712 423.301 60.9779 423.058 61.5754C422.693 62.4717 422.236 63.1589 421.688 63.6369C421.201 64.1747 420.501 64.4435 419.588 64.4435C418.979 64.4435 418.279 64.1747 417.487 63.6369C416.757 63.0991 416.391 62.4119 416.391 61.5754C416.391 61.1571 416.452 60.6492 416.574 60.0517C416.696 59.3944 416.878 58.6774 417.122 57.9006L431.643 13.534C432.008 12.4585 432.282 11.5323 432.464 10.7555C432.647 9.91899 432.738 9.11232 432.738 8.33553C432.738 7.37948 432.038 6.66245 430.638 6.18443C430.09 5.94542 429.573 5.73628 429.085 5.55702C428.598 5.31801 428.355 5.079 428.355 4.83998C428.355 4.60097 428.416 4.39184 428.537 4.21258C428.72 3.97357 429.055 3.76443 429.542 3.58517C430.212 3.28641 431.125 2.95777 432.282 2.59925C433.439 2.18098 434.626 1.79259 435.844 1.43407C437.061 1.0158 438.157 0.687158 439.131 0.448145C440.166 0.209133 440.897 0.0896277 441.323 0.0896277C441.688 0.0896277 442.054 0.119506 442.419 0.179258C442.845 0.23901 443.058 0.537772 443.058 1.07555C443.058 1.61333 443.028 2.06147 442.967 2.41999C442.906 2.77851 442.784 3.19678 442.602 3.67481L430.729 38.7199C430.486 39.3174 430.486 39.5863 430.729 39.5266C431.034 39.4668 431.308 39.2876 431.551 38.9888C433.499 36.3597 435.57 34.0592 437.761 32.0873C440.014 30.0557 442.297 28.4723 444.611 27.337C446.985 26.2017 449.268 25.634 451.46 25.634C452.921 25.634 454.23 25.9925 455.387 26.7096C456.544 27.3668 457.122 28.4424 457.122 29.9362C457.122 31.43 456.513 32.9836 455.296 34.597C454.139 36.2103 452.647 37.7639 450.821 39.2577C449.055 40.7515 447.168 42.0661 445.159 43.2014C443.15 44.3367 441.323 45.1433 439.679 45.6214C439.07 45.8006 438.918 46.2189 439.223 46.8762L443.15 55.8391C443.454 56.3769 443.85 56.9445 444.337 57.5421C444.824 58.0799 445.372 58.3487 445.981 58.3487C447.077 58.3487 448.233 57.8408 449.451 56.825C450.669 55.7495 451.673 54.5843 452.465 53.3295C452.769 52.8515 453.013 52.5527 453.195 52.4332C453.378 52.2539 453.591 52.1643 453.835 52.1643C454.017 52.1643 454.169 52.3137 454.291 52.6125C454.413 52.8515 454.474 53.0905 454.474 53.3295C454.474 54.4051 454.017 55.6001 453.104 56.9147C452.252 58.2292 451.156 59.5139 449.816 60.7687C448.538 62.0235 447.229 63.0393 445.889 63.8161C444.55 64.6527 443.393 65.0709 442.419 65.0709ZM433.195 44.9043C435.022 44.9043 436.848 44.4861 438.675 43.6495C440.562 42.813 442.297 41.7673 443.88 40.5125C445.463 39.1979 446.742 37.8834 447.716 36.5688C448.69 35.1945 449.177 34.0592 449.177 33.1629C449.177 32.2666 448.903 31.6093 448.355 31.191C447.807 30.713 447.046 30.474 446.072 30.474C444.854 30.474 443.454 31.0118 441.871 32.0873C440.288 33.1629 438.766 34.5073 437.305 36.1206C435.843 37.6742 434.626 39.1382 433.652 40.5125C432.678 41.8868 432.19 42.9026 432.19 43.5599C432.19 43.8586 432.282 44.1574 432.464 44.4562C432.647 44.7549 432.891 44.9043 433.195 44.9043Z"
    fill="black" />
  <path
    d="M466.209 53.4401C464.822 53.4401 463.593 52.9358 462.521 51.927C461.512 50.8552 461.008 49.6258 461.008 48.2387C461.008 46.7886 461.512 45.5592 462.521 44.5504C463.593 43.5417 464.822 43.0373 466.209 43.0373C467.659 43.0373 468.889 43.5417 469.897 44.5504C470.906 45.5592 471.411 46.7886 471.411 48.2387C471.411 49.6258 470.906 50.8552 469.897 51.927C468.889 52.9358 467.659 53.4401 466.209 53.4401Z"
    fill="black" />
  <path
    d="M483.656 66.0497C482.521 66.0497 481.355 65.6084 480.157 64.7257C479.022 63.843 478.045 62.7712 477.225 61.5103C476.469 60.2493 476.091 59.0514 476.091 57.9165C476.091 55.899 476.627 54.3228 477.698 53.188C478.77 52.0531 480.472 51.0128 482.805 50.0671L492.452 46.0951C493.712 45.5907 494.438 45.1494 494.627 44.7711C494.879 44.3928 495.036 43.5732 495.1 42.3122L495.289 36.2596C495.352 34.6204 494.879 33.2018 493.87 32.0039C492.924 30.806 491.537 30.2071 489.709 30.2071C488.763 30.2071 487.817 30.3647 486.872 30.6799C485.926 30.9952 485.138 31.405 484.507 31.9094C484.129 32.1615 483.877 32.5398 483.751 33.0442C483.625 33.5486 483.562 34.0845 483.562 34.6519C483.562 34.9041 483.562 35.1878 483.562 35.5031C483.625 35.8183 483.656 36.102 483.656 36.3542C483.656 36.6695 483.247 37.1108 482.427 37.6782C481.67 38.1826 480.788 38.6555 479.779 39.0968C478.833 39.4751 478.045 39.6642 477.415 39.6642C477.099 39.6642 476.847 39.6012 476.658 39.4751C476.469 39.2859 476.374 39.0653 476.374 38.8131C476.374 37.8043 476.69 36.7325 477.32 35.5976C478.014 34.3997 478.959 33.2964 480.157 32.2876C481.607 30.9636 483.183 29.7973 484.886 28.7885C486.588 27.7797 488.259 26.9916 489.898 26.4242C491.537 25.8568 492.987 25.5731 494.248 25.5731C496.518 25.5731 498.378 26.3927 499.828 28.0319C501.341 29.6081 502.066 31.5941 502.003 33.9899L501.53 56.6871C501.467 58.0111 501.751 59.0829 502.382 59.9025C503.075 60.7222 503.926 61.132 504.935 61.132C506.511 61.132 507.678 60.7852 508.434 60.0917C508.749 59.7764 509.002 59.6188 509.191 59.6188C509.506 59.6188 509.758 59.7134 509.947 59.9025C510.136 60.0917 510.231 60.3439 510.231 60.6591C510.231 61.3526 509.884 62.0462 509.191 62.7397C508.182 63.7485 507.079 64.5365 505.881 65.104C504.746 65.7345 503.674 66.0497 502.665 66.0497C499.765 66.0497 497.464 64.4105 495.762 61.132H495.478C493.397 62.8343 491.411 64.0637 489.52 64.8203C487.628 65.6399 485.674 66.0497 483.656 66.0497ZM488.101 61.5103C489.362 61.5103 490.434 61.3211 491.317 60.9428C492.199 60.5015 492.987 59.9341 493.681 59.2405C493.996 58.9253 494.248 58.5155 494.438 58.0111C494.69 57.4437 494.847 56.561 494.91 55.3631L495.1 50.7291C495.163 50.0356 495.131 49.5312 495.005 49.216C494.879 48.9007 494.627 48.7431 494.248 48.7431C494.122 48.7431 493.902 48.7746 493.586 48.8377C493.271 48.9007 492.861 49.0268 492.357 49.216C489.015 50.4139 486.683 51.6748 485.359 52.9988C484.098 54.2598 483.467 55.4261 483.467 56.498C483.467 58.1372 483.94 59.3982 484.886 60.2808C485.895 61.1004 486.966 61.5103 488.101 61.5103Z"
    fill="black" />
  <path
    d="M511.439 64.9647C511.08 64.9647 510.761 64.8848 510.481 64.7251C510.202 64.6053 510.062 64.4256 510.062 64.186C510.062 63.5871 510.561 63.1878 511.559 62.9881C513.077 62.6687 514.155 62.2294 514.794 61.6704C515.432 61.1114 515.752 60.173 515.752 58.8553V32.5014C515.752 30.984 515.492 29.866 514.973 29.1473C514.494 28.4285 513.536 27.9094 512.098 27.59C511.539 27.4702 511.14 27.3105 510.9 27.1108C510.661 26.8712 510.541 26.6317 510.541 26.3921C510.541 26.1126 510.661 25.9129 510.9 25.7931C511.18 25.6334 511.539 25.5535 511.978 25.5535C512.937 25.5535 513.815 25.5735 514.614 25.6134C515.452 25.6134 516.251 25.6334 517.01 25.6733C517.768 25.7133 518.547 25.7332 519.346 25.7332C520.224 25.7332 521.043 25.6933 521.801 25.6134C522.6 25.5336 523.399 25.4537 524.197 25.3739C525.036 25.294 525.994 25.2541 527.072 25.2541C531.824 25.2541 535.617 26.2523 538.452 28.2488C541.287 30.2453 542.705 33.0005 542.705 36.5144C542.705 38.9901 542.186 41.286 541.148 43.4023C540.149 45.4787 538.592 47.1558 536.476 48.4336C534.399 49.7113 531.764 50.3502 528.569 50.3502C527.571 50.3502 526.813 50.2104 526.293 49.9309C525.774 49.6115 525.515 49.2721 525.515 48.9127C525.515 48.6731 525.635 48.4735 525.874 48.3138C526.154 48.1141 526.393 48.0143 526.593 48.0143C526.952 48.0143 527.292 48.0542 527.611 48.1341C527.971 48.174 528.49 48.194 529.168 48.194C531.045 48.194 532.463 47.2356 533.421 45.319C534.419 43.4023 534.918 40.8468 534.918 37.6524C534.918 34.1385 534.2 31.583 532.762 29.9858C531.365 28.3487 529.468 27.5301 527.072 27.5301C525.954 27.5301 525.076 27.7697 524.437 28.2488C523.838 28.6881 523.538 29.4068 523.538 30.4051L523.478 58.496C523.478 59.8137 523.798 60.8119 524.437 61.4907C525.116 62.1296 526.254 62.6287 527.851 62.9881C528.37 63.068 528.749 63.2077 528.989 63.4074C529.228 63.5671 529.348 63.8067 529.348 64.1261C529.348 64.4056 529.228 64.6053 528.989 64.7251C528.789 64.8449 528.47 64.9048 528.03 64.9048C527.112 64.9048 526.174 64.8648 525.215 64.785C524.257 64.745 523.319 64.7051 522.4 64.6652C521.522 64.6253 520.683 64.6053 519.885 64.6053C519.006 64.6053 518.088 64.6253 517.129 64.6652C516.211 64.7051 515.273 64.765 514.314 64.8449C513.356 64.9247 512.398 64.9647 511.439 64.9647Z"
    fill="black" />
  <path
    d="M543.557 64.9647C543.198 64.9647 542.879 64.8848 542.599 64.7251C542.32 64.6053 542.18 64.4256 542.18 64.186C542.18 63.5871 542.679 63.1878 543.677 62.9881C545.195 62.6687 546.273 62.2294 546.912 61.6704C547.55 61.1114 547.87 60.173 547.87 58.8553V32.5014C547.87 30.984 547.61 29.866 547.091 29.1473C546.612 28.4285 545.654 27.9094 544.216 27.59C543.657 27.4702 543.258 27.3105 543.018 27.1108C542.779 26.8712 542.659 26.6317 542.659 26.3921C542.659 26.1126 542.779 25.9129 543.018 25.7931C543.298 25.6334 543.657 25.5535 544.096 25.5535C545.055 25.5535 545.933 25.5735 546.732 25.6134C547.57 25.6134 548.369 25.6334 549.128 25.6733C549.886 25.7133 550.665 25.7332 551.464 25.7332C552.342 25.7332 553.161 25.6933 553.919 25.6134C554.718 25.5336 555.517 25.4537 556.315 25.3739C557.154 25.294 558.112 25.2541 559.19 25.2541C563.942 25.2541 567.735 26.2523 570.57 28.2488C573.405 30.2453 574.823 33.0005 574.823 36.5144C574.823 38.9901 574.304 41.286 573.265 43.4023C572.267 45.4787 570.71 47.1558 568.594 48.4336C566.517 49.7113 563.882 50.3502 560.687 50.3502C559.689 50.3502 558.931 50.2104 558.411 49.9309C557.892 49.6115 557.633 49.2721 557.633 48.9127C557.633 48.6731 557.753 48.4735 557.992 48.3138C558.272 48.1141 558.511 48.0143 558.711 48.0143C559.07 48.0143 559.41 48.0542 559.729 48.1341C560.089 48.174 560.608 48.194 561.286 48.194C563.163 48.194 564.581 47.2356 565.539 45.319C566.537 43.4023 567.036 40.8468 567.036 37.6524C567.036 34.1385 566.318 31.583 564.88 29.9858C563.483 28.3487 561.586 27.5301 559.19 27.5301C558.072 27.5301 557.194 27.7697 556.555 28.2488C555.956 28.6881 555.656 29.4068 555.656 30.4051L555.596 58.496C555.596 59.8137 555.916 60.8119 556.555 61.4907C557.234 62.1296 558.372 62.6287 559.969 62.9881C560.488 63.068 560.867 63.2077 561.107 63.4074C561.346 63.5671 561.466 63.8067 561.466 64.1261C561.466 64.4056 561.346 64.6053 561.107 64.7251C560.907 64.8449 560.588 64.9048 560.148 64.9048C559.23 64.9048 558.292 64.8648 557.333 64.785C556.375 64.745 555.437 64.7051 554.518 64.6652C553.64 64.6253 552.801 64.6053 552.003 64.6053C551.124 64.6053 550.206 64.6253 549.247 64.6652C548.329 64.7051 547.391 64.765 546.432 64.8449C545.474 64.9247 544.516 64.9647 543.557 64.9647Z"
    fill="black" />
</svg>